<?xml version="1.0" encoding="utf-8"?>
<!-- Svg Vector Icons : http://www.onlinewebfonts.com/icon -->
<!DOCTYPE svg PUBLIC "-//W3C//DTD SVG 1.1//EN" "http://www.w3.org/Graphics/SVG/1.1/DTD/svg11.dtd">
<svg version="1.1" xmlns="http://www.w3.org/2000/svg" xmlns:xlink="http://www.w3.org/1999/xlink" x="0px" y="0px" viewBox="0 0 256 256" enable-background="new 0 0 256 256" xml:space="preserve">
<metadata> Svg Vector Icons : http://www.onlinewebfonts.com/icon </metadata>
<g> <path fill="#543c77" d="M246,206.7c0,21.6-17.7,39.3-39.3,39.3H49.4C27.7,246,10,228.3,10,206.7V49.4C10,27.7,27.7,10,49.4,10 h157.3c21.6,0,39.3,17.7,39.3,39.4V206.7z"/> <path fill="#ffffff" d="M71.1,59.3H138c12.3,0,22.4,2.7,29.7,8.6s11.1,14.2,11.1,25.6c0,6.9-1.7,12.8-5.2,17.7 c-3.5,4.9-8.4,8.9-14.5,11.6v0.5c8.6,1.7,15,5.9,19.2,12c4.4,6.1,6.6,14,6.6,23.4c0,5.4-1,10.6-2.9,15c-2,4.7-4.9,8.8-9.1,12 c-4.2,3.5-9.4,6.1-15.7,8.1c-6.4,2-14,2.9-22.9,2.9H71.1V59.3z M95.2,116.8h39.3c5.9,0,10.6-1.7,14.5-4.9c3.9-3.2,5.9-8.1,5.9-14.3 c0-6.9-1.7-11.8-5.2-14.8c-3.5-2.7-8.6-4.2-15-4.2H95.4L95.2,116.8z M95.2,177.3h42.5c7.4,0,13-2,17-5.7s6.1-9.1,6.1-16.2 c0-6.9-2-12-6.1-15.7c-4.2-3.7-9.8-5.4-17-5.4H95.2V177.3z"/></g>
</svg>