<?xml version="1.0" encoding="utf-8"?>
<!-- Svg Vector Icons : http://www.onlinewebfonts.com/icon -->
<!DOCTYPE svg PUBLIC "-//W3C//DTD SVG 1.1//EN" "http://www.w3.org/Graphics/SVG/1.1/DTD/svg11.dtd">
<svg version="1.1" xmlns="http://www.w3.org/2000/svg" xmlns:xlink="http://www.w3.org/1999/xlink" x="0px" y="0px" viewBox="0 0 256 256" enable-background="new 0 0 256 256" xml:space="preserve">
<metadata> Svg Vector Icons : http://www.onlinewebfonts.com/icon </metadata>
<g> <path fill="#6dc8e7" d="M107,127.9c0,11.6,9.4,21,21,21c11.6,0,21-9.4,21-21s-9.4-21-21-21C116.4,106.9,107,116.3,107,127.9z"/> <path fill="#6dc8e7" d="M246,127.9c0-16.5-19.4-30.8-49.6-39.5C204,58,201.3,34,187,25.8c-14.3-8.3-36.4,1.4-59,23.2 c-22.6-21.8-44.7-31.5-59-23.2C54.7,34,52,58,59.6,88.4c-30.2,8.7-49.6,23-49.6,39.5s19.4,30.8,49.6,39.5 c-7.6,30.4-4.9,54.4,9.4,62.7c3.5,2.1,7.5,3.1,11.9,3.1c10.4,0,23.1-5.7,36.8-16.9c3.4-2.8,6.9-5.9,10.3-9.3 c3.4,3.3,6.9,6.5,10.3,9.3c13.7,11.2,26.4,16.9,36.8,16.9c4.4,0,8.4-1,11.9-3.1c14.3-8.3,17-32.2,9.4-62.7 C226.6,158.8,246,144.5,246,127.9z M181.9,34.6c9.3,5.4,11.2,24.8,4.6,51.3c-9.7-2.2-20.2-3.9-31.4-4.9 c-6.5-9.2-13.2-17.5-19.9-24.7c15.6-15.1,30-23.3,40-23.3C177.7,33,180,33.5,181.9,34.6z M160.9,146.9c-3.6,6.3-7.5,12.4-11.4,18.2 c-6.9,0.5-14,0.8-21.5,0.8c-7.4,0-14.6-0.3-21.5-0.8c-3.9-5.8-7.8-11.9-11.4-18.2c-3.7-6.4-7-12.8-10-19c3-6.2,6.3-12.6,10-19 c3.7-6.4,7.6-12.5,11.4-18.2c6.9-0.5,14-0.8,21.5-0.8s14.6,0.3,21.5,0.8c3.9,5.7,7.7,11.7,11.4,18.2c3.7,6.4,7,12.8,10,19 C167.9,134.1,164.6,140.5,160.9,146.9L160.9,146.9z M176.4,140c2.9,7,5.4,13.7,7.4,20.1c-6.6,1.5-13.6,2.7-21.1,3.7 c2.4-3.8,4.8-7.7,7.2-11.7C172.1,148,174.3,144,176.4,140z M128,192.3c-4.7-5.1-9.2-10.5-13.7-16.5c4.5,0.2,9.1,0.3,13.7,0.3 c4.7,0,9.2-0.1,13.7-0.3C137.2,181.8,132.7,187.3,128,192.3z M93.4,163.8c-7.5-0.9-14.5-2.2-21.1-3.7c2-6.4,4.4-13.1,7.4-20.1 c2.1,4,4.2,8,6.6,12.1C88.6,156.1,91,160,93.4,163.8z M79.6,115.9c-2.9-7-5.4-13.7-7.4-20.1c6.6-1.5,13.6-2.7,21.1-3.7 c-2.4,3.8-4.8,7.7-7.2,11.7C83.9,107.9,81.7,111.9,79.6,115.9z M128,63.6c4.6,4.9,9.2,10.5,13.7,16.5c-4.5-0.2-9.1-0.3-13.7-0.3 c-4.7,0-9.2,0.1-13.7,0.3C118.8,74,123.4,68.5,128,63.6z M169.8,103.8c-2.3-4-4.7-7.9-7.2-11.7c7.5,0.9,14.5,2.2,21.1,3.7 c-2,6.4-4.4,13.1-7.4,20.1C174.3,111.9,172.1,107.9,169.8,103.8z M74.1,34.6c1.9-1.1,4.2-1.6,6.7-1.6c9.9,0,24.4,8.2,40,23.3 c-6.7,7.3-13.4,15.6-19.9,24.7c-11.2,1-21.7,2.7-31.4,4.9C62.9,59.4,64.9,40,74.1,34.6z M20.3,127.9c0-10.7,15.9-22.2,42.1-29.6 c2.9,9.5,6.7,19.4,11.4,29.6c-4.7,10.2-8.5,20.2-11.4,29.6C36.1,150.1,20.3,138.6,20.3,127.9L20.3,127.9z M111.2,208.3 c-15.7,12.8-29.2,17.5-37.1,12.9c-9.3-5.4-11.2-24.8-4.6-51.3c9.7,2.2,20.2,3.9,31.4,4.9c6.4,9.1,13.1,17.4,19.9,24.8 C117.6,202.8,114.5,205.7,111.2,208.3z M181.9,221.3c-7.9,4.6-21.4-0.2-37.1-12.9c-3.2-2.6-6.4-5.6-9.6-8.6 c6.8-7.4,13.5-15.7,19.9-24.8c11.2-1,21.7-2.7,31.4-4.9C193.1,196.5,191.1,215.9,181.9,221.3L181.9,221.3z M193.7,157.6 c-2.9-9.5-6.7-19.4-11.4-29.6c4.7-10.2,8.5-20.2,11.4-29.6c26.2,7.5,42.1,18.9,42.1,29.6C235.7,138.6,219.9,150.1,193.7,157.6z"/></g>
</svg>